<svg id="Layer_2" data-name="Layer 2" xmlns="http://www.w3.org/2000/svg" width="20" height="20" viewBox="0 0 20 20">
  <g id="invisible_box" data-name="invisible box">
    <rect id="Rechteck_675" data-name="Rechteck 675" width="20" height="20" fill="none"/>
  </g>
  <g id="icons_Q2" data-name="icons Q2" transform="translate(2.5 4.167)">
    <path id="Pfad_1600" data-name="Pfad 1600" d="M21,10.833a.833.833,0,0,1-.833.833H6.833A.833.833,0,0,1,6,10.833H6A.833.833,0,0,1,6.833,10H20.167A.833.833,0,0,1,21,10.833Z" transform="translate(-6 -10)" fill="#1b1c34"/>
    <path id="Pfad_1601" data-name="Pfad 1601" d="M17.667,22.833a.833.833,0,0,1-.833.833h-10A.833.833,0,0,1,6,22.833H6A.833.833,0,0,1,6.833,22h10A.833.833,0,0,1,17.667,22.833Z" transform="translate(-6 -17)" fill="#1b1c34"/>
    <path id="Pfad_1602" data-name="Pfad 1602" d="M14.333,34.833a.833.833,0,0,1-.833.833H6.833A.833.833,0,0,1,6,34.833H6A.833.833,0,0,1,6.833,34H13.5A.833.833,0,0,1,14.333,34.833Z" transform="translate(-6 -24)" fill="#1b1c34"/>
  </g>
</svg>
