<svg id="icons_Q2" data-name="icons Q2" xmlns="http://www.w3.org/2000/svg" width="16.673" height="16.677" viewBox="0 0 16.673 16.677">
  <path id="Pfad_1603" data-name="Pfad 1603" d="M17.208,17.083A6.25,6.25,0,0,1,12.667,19a6.542,6.542,0,0,1-6.042-4.167h3.708a.833.833,0,1,0,0-1.667H6.208c0-.292-.042-.542-.042-.833s.042-.542.042-.833h4.125a.833.833,0,1,0,0-1.667H6.625a6.542,6.542,0,0,1,6.042-4.167A6.458,6.458,0,0,1,17.25,7.625a.833.833,0,0,0,1.167,0,.792.792,0,0,0,0-1.167A8,8,0,0,0,12.667,4,8.208,8.208,0,0,0,4.875,9.833H2.833a.833.833,0,1,0,0,1.667H4.542a5.583,5.583,0,0,0-.042.833,5.583,5.583,0,0,0,.042.833H2.833a.833.833,0,0,0,0,1.667H4.875A8.083,8.083,0,0,0,18.417,18.25a.875.875,0,0,0,0-1.208.917.917,0,0,0-1.208.042Z" transform="translate(-2 -4)" fill="#21c4a7"/>
</svg>
